<?xml version="1.0" encoding="utf-8"?>
<!-- Generator: Adobe Illustrator 23.0.0, SVG Export Plug-In . SVG Version: 6.00 Build 0)  -->
<svg version="1.1" id="Calque_1" xmlns="http://www.w3.org/2000/svg" xmlns:xlink="http://www.w3.org/1999/xlink" x="0px" y="0px"
	 viewBox="0 0 1101 224" style="enable-background:new 0 0 1101 224;" xml:space="preserve">
<style type="text/css">
	.st0{fill:#00A99D;}
</style>
<g>
	<path class="st0" d="M78.4,53.2h80.5v23.6h-50.6V106h47.3v23.5h-47.3v51.3H78.4V53.2z"/>
	<path class="st0" d="M301.9,115.7c0,41.8-26.2,67.1-64.7,67.1c-39.1,0-61.9-28.6-61.9-64.9c0-38.2,25.2-66.8,64.1-66.8
		C279.8,51.2,301.9,80.5,301.9,115.7z M206.7,117.4c0,25,12.1,42.6,32,42.6c20.1,0,31.6-18.5,31.6-43.3c0-22.9-11.3-42.6-31.8-42.6
		C218.5,74,206.7,92.6,206.7,117.4z"/>
	<path class="st0" d="M441.9,115.7c0,41.8-26.2,67.1-64.7,67.1c-39.1,0-61.9-28.6-61.9-64.9c0-38.2,25.2-66.8,64.1-66.8
		C419.9,51.2,441.9,80.5,441.9,115.7z M346.8,117.4c0,25,12.1,42.6,32,42.6c20.1,0,31.6-18.5,31.6-43.3c0-22.9-11.3-42.6-31.8-42.6
		C358.5,74,346.8,92.6,346.8,117.4z"/>
	<path class="st0" d="M461.5,54.9c10.9-1.7,25.2-2.6,40.2-2.6c25,0,41.2,4.3,53.9,13.6c13.7,9.8,22.3,25.5,22.3,48
		c0,24.4-9.2,41.2-21.9,51.6c-13.9,11.2-35,16.5-60.8,16.5c-15.4,0-26.4-0.9-33.8-1.9V54.9z M491.3,159c2.5,0.6,6.6,0.6,10.4,0.6
		c27,0.2,44.5-14.2,44.5-44.6c0.2-26.5-15.8-40.5-41.4-40.5c-6.6,0-10.9,0.6-13.5,1.1V159z"/>
	<path d="M599.4,53.2h70.9V67h-53.9v42.4h49.8V123h-49.8v57.7h-17V53.2z"/>
	<path d="M711.5,53.2v127.5h-17V53.2H711.5z"/>
	<path d="M741.2,54.9c8.6-1.7,20.9-2.6,32.6-2.6c18.2,0,29.9,3.2,38.1,10.4c6.6,5.7,10.4,14.4,10.4,24.2c0,16.8-10.9,28-24.8,32.5
		v0.6c10.2,3.4,16.2,12.5,19.3,25.7c4.3,17.8,7.4,30.1,10.2,35h-17.6c-2.1-3.6-5.1-14.6-8.8-30.5c-3.9-17.6-10.9-24.2-26.4-24.8h-16
		v55.2h-17V54.9z M758.2,113h17.4c18.2,0,29.7-9.6,29.7-24.2c0-16.5-12.3-23.6-30.3-23.8c-8.2,0-14.1,0.8-16.8,1.5V113z"/>
	<path d="M843.9,160.7c7.6,4.5,18.8,8.3,30.5,8.3c17.4,0,27.5-8.9,27.5-21.8c0-11.9-7-18.7-24.8-25.3c-21.5-7.4-34.8-18.2-34.8-36.1
		c0-19.9,17-34.6,42.6-34.6c13.5,0,23.2,3,29.1,6.2l-4.7,13.4c-4.3-2.3-13.1-6.1-25-6.1c-18,0-24.8,10.4-24.8,19.1
		c0,11.9,8,17.8,26.2,24.6c22.3,8.3,33.6,18.7,33.6,37.4c0,19.7-15,36.7-46.1,36.7c-12.7,0-26.6-3.6-33.6-8.1L843.9,160.7z"/>
	<path d="M967.6,67.2h-40v-14h97.5v14h-40.2v113.5h-17.2V67.2z"/>
</g>
</svg>
