<?xml version="1.0" encoding="utf-8"?>
<!-- Generator: Adobe Illustrator 23.0.0, SVG Export Plug-In . SVG Version: 6.00 Build 0)  -->
<svg version="1.1" id="Calque_1" xmlns="http://www.w3.org/2000/svg" xmlns:xlink="http://www.w3.org/1999/xlink" x="0px" y="0px"
	 viewBox="0 0 1101 641" style="enable-background:new 0 0 1101 641;" xml:space="preserve">
<style type="text/css">
	.st0{enable-background:new    ;}
	.st1{fill:#00A99D;}
</style>
<g class="st0">
	<path d="M78.4,475.2h80.5v23.6h-50.6V528h47.3v23.5h-47.3v51.3H78.4V475.2z"/>
	<path d="M301.9,537.7c0,41.8-26.2,67.1-64.7,67.1c-39.1,0-61.9-28.6-61.9-64.9c0-38.2,25.2-66.8,64.1-66.8
		C279.8,473.2,301.9,502.5,301.9,537.7z M206.7,539.4c0,25,12.1,42.6,32,42.6c20.1,0,31.6-18.5,31.6-43.3
		c0-22.9-11.3-42.6-31.8-42.6C218.5,496,206.7,514.6,206.7,539.4z"/>
	<path d="M441.9,537.7c0,41.8-26.2,67.1-64.7,67.1c-39.1,0-61.9-28.6-61.9-64.9c0-38.2,25.2-66.8,64.1-66.8
		C419.8,473.2,441.9,502.5,441.9,537.7z M346.8,539.4c0,25,12.1,42.6,32,42.6c20.1,0,31.6-18.5,31.6-43.3
		c0-22.9-11.3-42.6-31.8-42.6C358.5,496,346.8,514.6,346.8,539.4z"/>
	<path d="M461.4,476.9c10.9-1.7,25.2-2.6,40.2-2.6c25,0,41.2,4.3,53.9,13.6c13.7,9.8,22.3,25.5,22.3,48c0,24.4-9.2,41.2-21.9,51.6
		c-13.9,11.2-35,16.5-60.7,16.5c-15.4,0-26.4-0.9-33.8-1.9V476.9z M491.3,581c2.5,0.6,6.6,0.6,10.4,0.6c27,0.2,44.5-14.2,44.5-44.6
		c0.2-26.5-15.8-40.5-41.4-40.5c-6.6,0-10.9,0.6-13.5,1.1V581z"/>
</g>
<g class="st0">
	<path d="M599.3,475.2h70.9V489h-53.9v42.4h49.8V545h-49.8v57.7h-17V475.2z"/>
	<path d="M711.5,475.2v127.5h-17V475.2H711.5z"/>
	<path d="M741.1,476.9c8.6-1.7,20.9-2.6,32.6-2.6c18.2,0,29.9,3.2,38.1,10.4c6.6,5.7,10.4,14.4,10.4,24.2c0,16.8-10.9,28-24.8,32.5
		v0.6c10.2,3.4,16.2,12.5,19.3,25.7c4.3,17.8,7.4,30.1,10.2,35h-17.6c-2.1-3.6-5.1-14.6-8.8-30.5c-3.9-17.6-10.9-24.2-26.4-24.8h-16
		v55.2h-17V476.9z M758.1,535h17.4c18.2,0,29.7-9.6,29.7-24.2c0-16.5-12.3-23.6-30.3-23.8c-8.2,0-14.1,0.8-16.8,1.5V535z"/>
	<path d="M843.9,582.7c7.6,4.5,18.8,8.3,30.5,8.3c17.4,0,27.5-8.9,27.5-21.8c0-11.9-7-18.7-24.8-25.3c-21.5-7.4-34.8-18.2-34.8-36.1
		c0-19.9,17-34.6,42.6-34.6c13.5,0,23.2,3,29.1,6.2l-4.7,13.4c-4.3-2.3-13.1-6.1-25-6.1c-18,0-24.8,10.4-24.8,19.1
		c0,11.9,8,17.8,26.2,24.6c22.3,8.3,33.6,18.7,33.6,37.4c0,19.7-15,36.7-46.1,36.7c-12.7,0-26.6-3.6-33.6-8.1L843.9,582.7z"/>
	<path d="M967.5,489.2h-40v-14h97.5v14h-40.2v113.5h-17.2V489.2z"/>
</g>
<g>
	<path class="st1" d="M513.1,350.5c0-14,0.1-28-0.1-42c0-3.6,1.1-5.8,4.5-7.4c11.3-5.4,16.8-14.5,16.6-27.2
		c-0.2-20.2-0.1-40.3-0.1-60.5c0-1.5,0-3-0.1-4.5c-0.1-1.8-0.8-3.4-2.9-3.5c-2.2-0.1-3.4,1.2-3.8,3.2c-0.3,1.6-0.3,3.3-0.3,5
		c0,15.5,0,31,0,46.5c0,1.8,0,3.7-0.3,5.5c-0.5,2.9-2.2,4.9-5.3,5.1c-2.9,0.2-4.5-1.8-5.6-4.2c-0.9-2-0.8-4.2-0.8-6.4
		c0-15.3,0-30.7,0-46c0-1.7,0-3.3-0.2-5c-0.2-2-1.2-3.7-3.4-3.6c-2.2,0-3.1,1.7-3.3,3.7c-0.2,1.5-0.1,3-0.1,4.5c0,15.5,0,31,0,46.5
		c0,1.8,0,3.7-0.3,5.5c-0.5,2.9-2.3,4.9-5.4,5c-2.9,0.1-4.5-1.8-5.6-4.3c-0.9-2-0.7-4.3-0.7-6.4c0-15.2,0-30.3,0-45.5
		c0-1.5,0-3-0.1-4.5c-0.2-2.3-0.8-4.6-3.6-4.5c-2.5,0.1-3.1,2.1-3.3,4.3c-0.1,1.5-0.1,3-0.1,4.5c0,15.2,0,30.3,0,45.5
		c0,1.5,0,3-0.1,4.5c-0.3,3.5-1.8,6.3-5.7,6.4c-3.6,0.1-5.2-2.6-5.9-5.8c-0.4-1.8-0.3-3.6-0.3-5.5c0-15.3,0-30.7,0-46
		c0-1.7,0-3.4-0.3-5c-0.3-1.8-1.4-3.1-3.4-2.9c-1.7,0.1-2.7,1.4-3,2.9c-0.3,1.6-0.3,3.3-0.3,5c0,20.2,0.2,40.3-0.1,60.5
		c-0.2,12.7,6.1,21.2,16.5,27c3.5,1.9,4.6,4,4.6,7.8c-0.1,28.3-0.2,56.7,0.1,85c0,5.3-2,7-6.8,7.4c-29.9,2.5-59.5,6.9-88.9,13.1
		c-12.7,2.7-12.4,5-12.3-10.4c0-7.3-0.3-14.7,0.1-22c0.2-5-1.4-7.2-6.4-8.7c-32.5-9.7-58.1-28.5-72.8-59.5
		c-18.4-38.8-14.3-76.1,11.6-110.5c10.8-14.3,24.8-24.9,40.7-33.3c20.3-10.7,36.6-25.8,48.7-45.5c19.5-31.9,48-47.5,85.5-46.3
		c9.7,0.3,19.2,2.6,28.1,6.4c35.4,15.2,71.9,17.3,109.2,8.9c30.3-6.9,60.3-6.5,89.6,4.1c37.1,13.4,62.8,38.5,76.1,76
		c10.6,29.8,13.4,60.3,5.9,90.9c-11.4,46.3-40.7,78-83.4,98.1c-6.3,3-12.7,5.9-19.5,7.6c-3.9,1-5.3,3.1-5.2,7.1
		c0.2,11.2,0,22.3,0.1,33.5c0.1,4.5-1.3,5.9-5.9,4.8c-25.4-5.7-51-10-76.9-12.6c-4.7-0.5-6.5-2.6-6.4-7.4c0.2-26.3,0.1-52.7,0.1-79
		c0-3.3,0.3-6.2,3.8-7.9c14.5-7.1,20.7-19.3,20-35s-2.5-31.2-9.3-45.7c-2.5-5.3-5.6-10.3-9.4-14.7c-9.4-11-24.2-10.3-33.7,1.3
		c-10.5,12.8-14.1,28.1-16.3,43.9c-0.8,6.1-1.3,12.2-1.1,18.4c0.5,13.7,6.1,24.5,18.5,30.9c4,2.1,5.5,4.6,5.4,9
		c-0.1,25.5-0.1,51-0.1,76.5c0,6.6-0.8,7.1-7.2,6.6c-17-1.3-34-0.6-51-0.6c-8.6,0-8.6,0-8.6-8.6
		C513.1,377.2,513.1,363.8,513.1,350.5z"/>
</g>
</svg>
